<?xml version="1.0" encoding="us-ascii" standalone="no"?><svg xmlns="http://www.w3.org/2000/svg" xmlns:xlink="http://www.w3.org/1999/xlink" contentStyleType="text/css" height="1532px" preserveAspectRatio="none" style="width:1259px;height:1532px;background:#FFFFFF;" version="1.1" viewBox="0 0 1259 1532" width="1259px" zoomAndPan="magnify"><defs/><g><rect fill="#FFFFFF" height="87.3984" style="stroke:#181818;stroke-width:1.0;" width="10" x="970.5" y="1325.4453"/><rect fill="none" height="362.125" style="stroke:#000000;stroke-width:1.5;" width="386" x="10" y="143.7266"/><rect fill="none" height="91.6641" style="stroke:#000000;stroke-width:1.5;" width="366" x="20" y="327.7891"/><rect fill="none" height="667.0625" style="stroke:#000000;stroke-width:1.5;" width="786" x="162" y="562.9844"/><rect fill="none" height="635.9297" style="stroke:#000000;stroke-width:1.5;" width="766" x="172" y="587.1172"/><rect fill="none" height="525.3984" style="stroke:#000000;stroke-width:1.5;" width="562" x="366" y="690.6484"/><rect fill="none" height="46.2656" style="stroke:#000000;stroke-width:1.5;" width="335" x="376" y="1037.1172"/><rect fill="none" height="111.6641" style="stroke:#000000;stroke-width:1.5;" width="347" x="571" y="1097.3828"/><rect fill="none" height="133.6641" style="stroke:#000000;stroke-width:1.5;" width="465" x="777" y="1287.1797"/><line style="stroke:#181818;stroke-width:0.5;stroke-dasharray:5.0,5.0;" x1="101" x2="101" y1="83.5938" y2="1437.8438"/><line style="stroke:#181818;stroke-width:0.5;stroke-dasharray:5.0,5.0;" x1="279" x2="279" y1="83.5938" y2="1437.8438"/><line style="stroke:#181818;stroke-width:0.5;stroke-dasharray:5.0,5.0;" x1="440" x2="440" y1="83.5938" y2="1437.8438"/><line style="stroke:#181818;stroke-width:0.5;stroke-dasharray:5.0,5.0;" x1="655" x2="655" y1="83.5938" y2="1437.8438"/><line style="stroke:#181818;stroke-width:0.5;stroke-dasharray:5.0,5.0;" x1="847" x2="847" y1="83.5938" y2="1437.8438"/><line style="stroke:#181818;stroke-width:0.5;stroke-dasharray:5.0,5.0;" x1="975" x2="975" y1="83.5938" y2="1437.8438"/><line style="stroke:#181818;stroke-width:0.5;stroke-dasharray:5.0,5.0;" x1="1203" x2="1203" y1="83.5938" y2="1437.8438"/><rect fill="#E2E2F0" height="46.5938" rx="2.5" ry="2.5" style="stroke:#181818;stroke-width:0.5;" width="142" x="30" y="36"/><ellipse cx="48" cy="54" fill="#ADD1B2" rx="11" ry="11" style="stroke:#181818;stroke-width:1.0;"/><path d="M50.3438,49.6719 C49.4063,49.2344 48.8125,49.0938 47.9375,49.0938 C45.3125,49.0938 43.3125,51.1719 43.3125,53.8906 L43.3125,55.0156 C43.3125,57.5938 45.4219,59.4844 48.3125,59.4844 C49.5313,59.4844 50.6875,59.1875 51.4375,58.6406 C52.0156,58.2344 52.3438,57.7813 52.3438,57.3906 C52.3438,56.9375 51.9531,56.5469 51.4844,56.5469 C51.2656,56.5469 51.0625,56.625 50.875,56.8125 C50.4219,57.2969 50.4219,57.2969 50.2344,57.3906 C49.8125,57.6563 49.125,57.7813 48.3594,57.7813 C46.3125,57.7813 45.0156,56.6875 45.0156,54.9844 L45.0156,53.8906 C45.0156,52.1094 46.2656,50.7969 48,50.7969 C48.5781,50.7969 49.1875,50.9531 49.6563,51.2031 C50.1406,51.4844 50.3125,51.7031 50.4063,52.1094 C50.4688,52.5156 50.5,52.6406 50.6406,52.7656 C50.7813,52.9063 51.0156,53.0156 51.2344,53.0156 C51.5,53.0156 51.7656,52.875 51.9375,52.6563 C52.0469,52.5 52.0781,52.3125 52.0781,51.8906 L52.0781,50.4688 C52.0781,50.0313 52.0625,49.9063 51.9688,49.75 C51.8125,49.4844 51.5313,49.3438 51.2344,49.3438 C50.9375,49.3438 50.7344,49.4375 50.5156,49.75 L50.3438,49.6719 Z " fill="#000000"/><text fill="#000000" font-family="sans-serif" font-size="14" font-style="italic" lengthAdjust="spacing" textLength="100" x="65" y="55.9951">&#171;job/console&#187;</text><text fill="#000000" font-family="sans-serif" font-size="14" lengthAdjust="spacing" textLength="60" x="85" y="72.292">Provider</text><rect fill="#E2E2F0" height="46.5938" rx="2.5" ry="2.5" style="stroke:#181818;stroke-width:0.5;" width="142" x="30" y="1436.8438"/><ellipse cx="48" cy="1454.8438" fill="#ADD1B2" rx="11" ry="11" style="stroke:#181818;stroke-width:1.0;"/><path d="M50.3438,1450.5156 C49.4063,1450.0781 48.8125,1449.9375 47.9375,1449.9375 C45.3125,1449.9375 43.3125,1452.0156 43.3125,1454.7344 L43.3125,1455.8594 C43.3125,1458.4375 45.4219,1460.3281 48.3125,1460.3281 C49.5313,1460.3281 50.6875,1460.0313 51.4375,1459.4844 C52.0156,1459.0781 52.3438,1458.625 52.3438,1458.2344 C52.3438,1457.7813 51.9531,1457.3906 51.4844,1457.3906 C51.2656,1457.3906 51.0625,1457.4688 50.875,1457.6563 C50.4219,1458.1406 50.4219,1458.1406 50.2344,1458.2344 C49.8125,1458.5 49.125,1458.625 48.3594,1458.625 C46.3125,1458.625 45.0156,1457.5313 45.0156,1455.8281 L45.0156,1454.7344 C45.0156,1452.9531 46.2656,1451.6406 48,1451.6406 C48.5781,1451.6406 49.1875,1451.7969 49.6563,1452.0469 C50.1406,1452.3281 50.3125,1452.5469 50.4063,1452.9531 C50.4688,1453.3594 50.5,1453.4844 50.6406,1453.6094 C50.7813,1453.75 51.0156,1453.8594 51.2344,1453.8594 C51.5,1453.8594 51.7656,1453.7188 51.9375,1453.5 C52.0469,1453.3438 52.0781,1453.1563 52.0781,1452.7344 L52.0781,1451.3125 C52.0781,1450.875 52.0625,1450.75 51.9688,1450.5938 C51.8125,1450.3281 51.5313,1450.1875 51.2344,1450.1875 C50.9375,1450.1875 50.7344,1450.2813 50.5156,1450.5938 L50.3438,1450.5156 Z " fill="#000000"/><text fill="#000000" font-family="sans-serif" font-size="14" font-style="italic" lengthAdjust="spacing" textLength="100" x="65" y="1456.8389">&#171;job/console&#187;</text><text fill="#000000" font-family="sans-serif" font-size="14" lengthAdjust="spacing" textLength="60" x="85" y="1473.1357">Provider</text><path d="M187,41 L371,41 C376,41 376,62.2969 376,62.2969 C376,62.2969 376,83.5938 371,83.5938 L187,83.5938 C182,83.5938 182,62.2969 182,62.2969 C182,62.2969 182,41 187,41 " fill="#E2E2F0" style="stroke:#181818;stroke-width:0.5;"/><path d="M371,41 C366,41 366,62.2969 366,62.2969 C366,83.5938 371,83.5938 371,83.5938 " fill="none" style="stroke:#181818;stroke-width:0.5;"/><ellipse cx="198" cy="57" fill="#ADD1B2" rx="11" ry="11" style="stroke:#181818;stroke-width:0.5;"/><path d="M200.3438,52.6719 C199.4063,52.2344 198.8125,52.0938 197.9375,52.0938 C195.3125,52.0938 193.3125,54.1719 193.3125,56.8906 L193.3125,58.0156 C193.3125,60.5938 195.4219,62.4844 198.3125,62.4844 C199.5313,62.4844 200.6875,62.1875 201.4375,61.6406 C202.0156,61.2344 202.3438,60.7813 202.3438,60.3906 C202.3438,59.9375 201.9531,59.5469 201.4844,59.5469 C201.2656,59.5469 201.0625,59.625 200.875,59.8125 C200.4219,60.2969 200.4219,60.2969 200.2344,60.3906 C199.8125,60.6563 199.125,60.7813 198.3594,60.7813 C196.3125,60.7813 195.0156,59.6875 195.0156,57.9844 L195.0156,56.8906 C195.0156,55.1094 196.2656,53.7969 198,53.7969 C198.5781,53.7969 199.1875,53.9531 199.6563,54.2031 C200.1406,54.4844 200.3125,54.7031 200.4063,55.1094 C200.4688,55.5156 200.5,55.6406 200.6406,55.7656 C200.7813,55.9063 201.0156,56.0156 201.2344,56.0156 C201.5,56.0156 201.7656,55.875 201.9375,55.6563 C202.0469,55.5 202.0781,55.3125 202.0781,54.8906 L202.0781,53.4688 C202.0781,53.0313 202.0625,52.9063 201.9688,52.75 C201.8125,52.4844 201.5313,52.3438 201.2344,52.3438 C200.9375,52.3438 200.7344,52.4375 200.5156,52.75 L200.3438,52.6719 Z " fill="#000000"/><text fill="#000000" font-family="sans-serif" font-size="14" font-style="italic" lengthAdjust="spacing" textLength="146" x="215" y="58.9951">&#171;Azure Service Bus&#187;</text><text fill="#000000" font-family="sans-serif" font-size="14" lengthAdjust="spacing" textLength="45" x="265.5" y="75.292">Queue</text><path d="M187,1436.8438 L371,1436.8438 C376,1436.8438 376,1458.1406 376,1458.1406 C376,1458.1406 376,1479.4375 371,1479.4375 L187,1479.4375 C182,1479.4375 182,1458.1406 182,1458.1406 C182,1458.1406 182,1436.8438 187,1436.8438 " fill="#E2E2F0" style="stroke:#181818;stroke-width:0.5;"/><path d="M371,1436.8438 C366,1436.8438 366,1458.1406 366,1458.1406 C366,1479.4375 371,1479.4375 371,1479.4375 " fill="none" style="stroke:#181818;stroke-width:0.5;"/><ellipse cx="198" cy="1452.8438" fill="#ADD1B2" rx="11" ry="11" style="stroke:#181818;stroke-width:0.5;"/><path d="M200.3438,1448.5156 C199.4063,1448.0781 198.8125,1447.9375 197.9375,1447.9375 C195.3125,1447.9375 193.3125,1450.0156 193.3125,1452.7344 L193.3125,1453.8594 C193.3125,1456.4375 195.4219,1458.3281 198.3125,1458.3281 C199.5313,1458.3281 200.6875,1458.0313 201.4375,1457.4844 C202.0156,1457.0781 202.3438,1456.625 202.3438,1456.2344 C202.3438,1455.7813 201.9531,1455.3906 201.4844,1455.3906 C201.2656,1455.3906 201.0625,1455.4688 200.875,1455.6563 C200.4219,1456.1406 200.4219,1456.1406 200.2344,1456.2344 C199.8125,1456.5 199.125,1456.625 198.3594,1456.625 C196.3125,1456.625 195.0156,1455.5313 195.0156,1453.8281 L195.0156,1452.7344 C195.0156,1450.9531 196.2656,1449.6406 198,1449.6406 C198.5781,1449.6406 199.1875,1449.7969 199.6563,1450.0469 C200.1406,1450.3281 200.3125,1450.5469 200.4063,1450.9531 C200.4688,1451.3594 200.5,1451.4844 200.6406,1451.6094 C200.7813,1451.75 201.0156,1451.8594 201.2344,1451.8594 C201.5,1451.8594 201.7656,1451.7188 201.9375,1451.5 C202.0469,1451.3438 202.0781,1451.1563 202.0781,1450.7344 L202.0781,1449.3125 C202.0781,1448.875 202.0625,1448.75 201.9688,1448.5938 C201.8125,1448.3281 201.5313,1448.1875 201.2344,1448.1875 C200.9375,1448.1875 200.7344,1448.2813 200.5156,1448.5938 L200.3438,1448.5156 Z " fill="#000000"/><text fill="#000000" font-family="sans-serif" font-size="14" font-style="italic" lengthAdjust="spacing" textLength="146" x="215" y="1454.8389">&#171;Azure Service Bus&#187;</text><text fill="#000000" font-family="sans-serif" font-size="14" lengthAdjust="spacing" textLength="45" x="265.5" y="1471.1357">Queue</text><rect fill="#E2E2F0" height="46.5938" rx="2.5" ry="2.5" style="stroke:#181818;stroke-width:0.5;" width="109" x="386" y="36"/><ellipse cx="404" cy="54" fill="#ADD1B2" rx="11" ry="11" style="stroke:#181818;stroke-width:1.0;"/><path d="M406.3438,49.6719 C405.4063,49.2344 404.8125,49.0938 403.9375,49.0938 C401.3125,49.0938 399.3125,51.1719 399.3125,53.8906 L399.3125,55.0156 C399.3125,57.5938 401.4219,59.4844 404.3125,59.4844 C405.5313,59.4844 406.6875,59.1875 407.4375,58.6406 C408.0156,58.2344 408.3438,57.7813 408.3438,57.3906 C408.3438,56.9375 407.9531,56.5469 407.4844,56.5469 C407.2656,56.5469 407.0625,56.625 406.875,56.8125 C406.4219,57.2969 406.4219,57.2969 406.2344,57.3906 C405.8125,57.6563 405.125,57.7813 404.3594,57.7813 C402.3125,57.7813 401.0156,56.6875 401.0156,54.9844 L401.0156,53.8906 C401.0156,52.1094 402.2656,50.7969 404,50.7969 C404.5781,50.7969 405.1875,50.9531 405.6563,51.2031 C406.1406,51.4844 406.3125,51.7031 406.4063,52.1094 C406.4688,52.5156 406.5,52.6406 406.6406,52.7656 C406.7813,52.9063 407.0156,53.0156 407.2344,53.0156 C407.5,53.0156 407.7656,52.875 407.9375,52.6563 C408.0469,52.5 408.0781,52.3125 408.0781,51.8906 L408.0781,50.4688 C408.0781,50.0313 408.0625,49.9063 407.9688,49.75 C407.8125,49.4844 407.5313,49.3438 407.2344,49.3438 C406.9375,49.3438 406.7344,49.4375 406.5156,49.75 L406.3438,49.6719 Z " fill="#000000"/><text fill="#000000" font-family="sans-serif" font-size="14" font-style="italic" lengthAdjust="spacing" textLength="67" x="421" y="55.9951">&#171;worker&#187;</text><text fill="#000000" font-family="sans-serif" font-size="14" lengthAdjust="spacing" textLength="58" x="425.5" y="72.292">Counter</text><rect fill="#E2E2F0" height="46.5938" rx="2.5" ry="2.5" style="stroke:#181818;stroke-width:0.5;" width="109" x="386" y="1436.8438"/><ellipse cx="404" cy="1454.8438" fill="#ADD1B2" rx="11" ry="11" style="stroke:#181818;stroke-width:1.0;"/><path d="M406.3438,1450.5156 C405.4063,1450.0781 404.8125,1449.9375 403.9375,1449.9375 C401.3125,1449.9375 399.3125,1452.0156 399.3125,1454.7344 L399.3125,1455.8594 C399.3125,1458.4375 401.4219,1460.3281 404.3125,1460.3281 C405.5313,1460.3281 406.6875,1460.0313 407.4375,1459.4844 C408.0156,1459.0781 408.3438,1458.625 408.3438,1458.2344 C408.3438,1457.7813 407.9531,1457.3906 407.4844,1457.3906 C407.2656,1457.3906 407.0625,1457.4688 406.875,1457.6563 C406.4219,1458.1406 406.4219,1458.1406 406.2344,1458.2344 C405.8125,1458.5 405.125,1458.625 404.3594,1458.625 C402.3125,1458.625 401.0156,1457.5313 401.0156,1455.8281 L401.0156,1454.7344 C401.0156,1452.9531 402.2656,1451.6406 404,1451.6406 C404.5781,1451.6406 405.1875,1451.7969 405.6563,1452.0469 C406.1406,1452.3281 406.3125,1452.5469 406.4063,1452.9531 C406.4688,1453.3594 406.5,1453.4844 406.6406,1453.6094 C406.7813,1453.75 407.0156,1453.8594 407.2344,1453.8594 C407.5,1453.8594 407.7656,1453.7188 407.9375,1453.5 C408.0469,1453.3438 408.0781,1453.1563 408.0781,1452.7344 L408.0781,1451.3125 C408.0781,1450.875 408.0625,1450.75 407.9688,1450.5938 C407.8125,1450.3281 407.5313,1450.1875 407.2344,1450.1875 C406.9375,1450.1875 406.7344,1450.2813 406.5156,1450.5938 L406.3438,1450.5156 Z " fill="#000000"/><text fill="#000000" font-family="sans-serif" font-size="14" font-style="italic" lengthAdjust="spacing" textLength="67" x="421" y="1456.8389">&#171;worker&#187;</text><text fill="#000000" font-family="sans-serif" font-size="14" lengthAdjust="spacing" textLength="58" x="425.5" y="1473.1357">Counter</text><rect fill="#E2E2F0" height="46.5938" style="stroke:#181818;stroke-width:0.5;" width="87" x="614" y="32"/><rect fill="#E2E2F0" height="46.5938" style="stroke:#181818;stroke-width:0.5;" width="87" x="610" y="36"/><ellipse cx="628" cy="54" fill="#ADD1B2" rx="11" ry="11" style="stroke:#181818;stroke-width:1.0;"/><path d="M628.9531,50.7813 L630.6719,50.7813 C631.0625,50.7813 631.25,50.75 631.375,50.6719 C631.6406,50.5156 631.7813,50.2344 631.7813,49.9375 C631.7813,49.6719 631.6719,49.4063 631.4375,49.2344 C631.2656,49.125 631.125,49.0938 630.6719,49.0938 L625.5313,49.0938 C625.0938,49.0938 624.9688,49.1094 624.8125,49.2031 C624.5625,49.3594 624.4063,49.6563 624.4063,49.9375 C624.4063,50.2188 624.5469,50.4688 624.7656,50.6406 C624.9219,50.75 625.1094,50.7813 625.5313,50.7813 L627.25,50.7813 L627.25,57.2969 L625.5313,57.2969 C625.0938,57.2969 624.9688,57.3125 624.8125,57.4219 C624.5625,57.5781 624.4063,57.8594 624.4063,58.1563 C624.4063,58.4063 624.5469,58.6719 624.7656,58.8281 C624.9219,58.9531 625.125,59 625.5313,59 L630.6719,59 C631.4219,59 631.7813,58.7188 631.7813,58.1563 C631.7813,57.875 631.6719,57.625 631.4375,57.4531 C631.2656,57.3281 631.125,57.2969 630.6719,57.2969 L628.9531,57.2969 L628.9531,50.7813 Z " fill="#000000"/><text fill="#000000" font-family="sans-serif" font-size="14" font-style="italic" lengthAdjust="spacing" textLength="44" x="645.5" y="55.9951">&#171;test&#187;</text><text fill="#000000" font-family="sans-serif" font-size="14" lengthAdjust="spacing" textLength="45" x="645" y="72.292">Buffer</text><rect fill="#E2E2F0" height="46.5938" style="stroke:#181818;stroke-width:0.5;" width="87" x="614" y="1436.8438"/><rect fill="#E2E2F0" height="46.5938" style="stroke:#181818;stroke-width:0.5;" width="87" x="610" y="1440.8438"/><ellipse cx="628" cy="1458.8438" fill="#ADD1B2" rx="11" ry="11" style="stroke:#181818;stroke-width:1.0;"/><path d="M628.9531,1455.625 L630.6719,1455.625 C631.0625,1455.625 631.25,1455.5938 631.375,1455.5156 C631.6406,1455.3594 631.7813,1455.0781 631.7813,1454.7813 C631.7813,1454.5156 631.6719,1454.25 631.4375,1454.0781 C631.2656,1453.9688 631.125,1453.9375 630.6719,1453.9375 L625.5313,1453.9375 C625.0938,1453.9375 624.9688,1453.9531 624.8125,1454.0469 C624.5625,1454.2031 624.4063,1454.5 624.4063,1454.7813 C624.4063,1455.0625 624.5469,1455.3125 624.7656,1455.4844 C624.9219,1455.5938 625.1094,1455.625 625.5313,1455.625 L627.25,1455.625 L627.25,1462.1406 L625.5313,1462.1406 C625.0938,1462.1406 624.9688,1462.1563 624.8125,1462.2656 C624.5625,1462.4219 624.4063,1462.7031 624.4063,1463 C624.4063,1463.25 624.5469,1463.5156 624.7656,1463.6719 C624.9219,1463.7969 625.125,1463.8438 625.5313,1463.8438 L630.6719,1463.8438 C631.4219,1463.8438 631.7813,1463.5625 631.7813,1463 C631.7813,1462.7188 631.6719,1462.4688 631.4375,1462.2969 C631.2656,1462.1719 631.125,1462.1406 630.6719,1462.1406 L628.9531,1462.1406 L628.9531,1455.625 Z " fill="#000000"/><text fill="#000000" font-family="sans-serif" font-size="14" font-style="italic" lengthAdjust="spacing" textLength="44" x="645.5" y="1460.8389">&#171;test&#187;</text><text fill="#000000" font-family="sans-serif" font-size="14" lengthAdjust="spacing" textLength="45" x="645" y="1477.1357">Buffer</text><ellipse cx="798" cy="62" fill="#ADD1B2" rx="11" ry="11" style="stroke:none;stroke-width:1.0;"/><path d="M795.5156,65.2969 C794.8594,65.2969 794.4688,65.6094 794.4688,66.1563 C794.4688,66.4063 794.6094,66.6719 794.8281,66.8281 C794.9844,66.9531 795.2031,67 795.6094,67 L799.0781,67 C800.5625,67 801.5781,66.6094 802.4063,65.7188 C803.1875,64.9063 803.5938,63.8594 803.5938,62.6094 L803.5938,61.8125 C803.5938,59.1406 801.7031,57.0938 799.2188,57.0938 L795.6094,57.0938 C795.1563,57.0938 795.0313,57.1094 794.875,57.2031 C794.625,57.3594 794.4688,57.6563 794.4688,57.9375 C794.4688,58.4844 794.8438,58.7813 795.5156,58.7813 L795.5156,65.2969 Z M797.2031,65.2969 L797.2031,58.7813 L799.0781,58.7813 C799.9844,58.7813 800.625,59.0625 801.1406,59.6563 C801.625,60.2344 801.9063,60.9844 801.9063,61.7813 L801.9063,62.5625 C801.9063,63.4375 801.6719,64.0313 801.2031,64.5469 C800.6719,65.0938 800.1094,65.2969 799.0938,65.2969 L797.2031,65.2969 Z " fill="#000000"/><text fill="#000000" font-family="sans-serif" font-size="14" font-style="italic" lengthAdjust="spacing" textLength="87" x="815" y="63.9951">&#171;MongoDB&#187;</text><text fill="#000000" font-family="sans-serif" font-size="14" lengthAdjust="spacing" textLength="68" x="824.5" y="80.292">Database</text><path d="M829.5,15 C829.5,5 847.5,5 847.5,5 C847.5,5 865.5,5 865.5,15 L865.5,41 C865.5,51 847.5,51 847.5,51 C847.5,51 829.5,51 829.5,41 L829.5,15 " fill="#E2E2F0" style="stroke:#181818;stroke-width:1.5;"/><path d="M829.5,15 C829.5,25 847.5,25 847.5,25 C847.5,25 865.5,25 865.5,15 " fill="none" style="stroke:#181818;stroke-width:1.5;"/><ellipse cx="798" cy="1447.8438" fill="#ADD1B2" rx="11" ry="11" style="stroke:none;stroke-width:1.0;"/><path d="M795.5156,1451.1406 C794.8594,1451.1406 794.4688,1451.4531 794.4688,1452 C794.4688,1452.25 794.6094,1452.5156 794.8281,1452.6719 C794.9844,1452.7969 795.2031,1452.8438 795.6094,1452.8438 L799.0781,1452.8438 C800.5625,1452.8438 801.5781,1452.4531 802.4063,1451.5625 C803.1875,1450.75 803.5938,1449.7031 803.5938,1448.4531 L803.5938,1447.6563 C803.5938,1444.9844 801.7031,1442.9375 799.2188,1442.9375 L795.6094,1442.9375 C795.1563,1442.9375 795.0313,1442.9531 794.875,1443.0469 C794.625,1443.2031 794.4688,1443.5 794.4688,1443.7813 C794.4688,1444.3281 794.8438,1444.625 795.5156,1444.625 L795.5156,1451.1406 Z M797.2031,1451.1406 L797.2031,1444.625 L799.0781,1444.625 C799.9844,1444.625 800.625,1444.9063 801.1406,1445.5 C801.625,1446.0781 801.9063,1446.8281 801.9063,1447.625 L801.9063,1448.4063 C801.9063,1449.2813 801.6719,1449.875 801.2031,1450.3906 C800.6719,1450.9375 800.1094,1451.1406 799.0938,1451.1406 L797.2031,1451.1406 Z " fill="#000000"/><text fill="#000000" font-family="sans-serif" font-size="14" font-style="italic" lengthAdjust="spacing" textLength="87" x="815" y="1449.8389">&#171;MongoDB&#187;</text><text fill="#000000" font-family="sans-serif" font-size="14" lengthAdjust="spacing" textLength="68" x="824.5" y="1466.1357">Database</text><path d="M829.5,1479.4375 C829.5,1469.4375 847.5,1469.4375 847.5,1469.4375 C847.5,1469.4375 865.5,1469.4375 865.5,1479.4375 L865.5,1505.4375 C865.5,1515.4375 847.5,1515.4375 847.5,1515.4375 C847.5,1515.4375 829.5,1515.4375 829.5,1505.4375 L829.5,1479.4375 " fill="#E2E2F0" style="stroke:#181818;stroke-width:1.5;"/><path d="M829.5,1479.4375 C829.5,1489.4375 847.5,1489.4375 847.5,1489.4375 C847.5,1489.4375 865.5,1489.4375 865.5,1479.4375 " fill="none" style="stroke:#181818;stroke-width:1.5;"/><rect fill="#E2E2F0" height="46.5938" rx="2.5" ry="2.5" style="stroke:#181818;stroke-width:0.5;" width="115" x="918" y="36"/><ellipse cx="936" cy="54" fill="#ADD1B2" rx="11" ry="11" style="stroke:#181818;stroke-width:1.0;"/><path d="M938.3438,49.6719 C937.4063,49.2344 936.8125,49.0938 935.9375,49.0938 C933.3125,49.0938 931.3125,51.1719 931.3125,53.8906 L931.3125,55.0156 C931.3125,57.5938 933.4219,59.4844 936.3125,59.4844 C937.5313,59.4844 938.6875,59.1875 939.4375,58.6406 C940.0156,58.2344 940.3438,57.7813 940.3438,57.3906 C940.3438,56.9375 939.9531,56.5469 939.4844,56.5469 C939.2656,56.5469 939.0625,56.625 938.875,56.8125 C938.4219,57.2969 938.4219,57.2969 938.2344,57.3906 C937.8125,57.6563 937.125,57.7813 936.3594,57.7813 C934.3125,57.7813 933.0156,56.6875 933.0156,54.9844 L933.0156,53.8906 C933.0156,52.1094 934.2656,50.7969 936,50.7969 C936.5781,50.7969 937.1875,50.9531 937.6563,51.2031 C938.1406,51.4844 938.3125,51.7031 938.4063,52.1094 C938.4688,52.5156 938.5,52.6406 938.6406,52.7656 C938.7813,52.9063 939.0156,53.0156 939.2344,53.0156 C939.5,53.0156 939.7656,52.875 939.9375,52.6563 C940.0469,52.5 940.0781,52.3125 940.0781,51.8906 L940.0781,50.4688 C940.0781,50.0313 940.0625,49.9063 939.9688,49.75 C939.8125,49.4844 939.5313,49.3438 939.2344,49.3438 C938.9375,49.3438 938.7344,49.4375 938.5156,49.75 L938.3438,49.6719 Z " fill="#000000"/><text fill="#000000" font-family="sans-serif" font-size="14" font-style="italic" lengthAdjust="spacing" textLength="73" x="953" y="55.9951">&#171;web API&#187;</text><text fill="#000000" font-family="sans-serif" font-size="14" lengthAdjust="spacing" textLength="23" x="978" y="72.292">API</text><rect fill="#E2E2F0" height="46.5938" rx="2.5" ry="2.5" style="stroke:#181818;stroke-width:0.5;" width="115" x="918" y="1436.8438"/><ellipse cx="936" cy="1454.8438" fill="#ADD1B2" rx="11" ry="11" style="stroke:#181818;stroke-width:1.0;"/><path d="M938.3438,1450.5156 C937.4063,1450.0781 936.8125,1449.9375 935.9375,1449.9375 C933.3125,1449.9375 931.3125,1452.0156 931.3125,1454.7344 L931.3125,1455.8594 C931.3125,1458.4375 933.4219,1460.3281 936.3125,1460.3281 C937.5313,1460.3281 938.6875,1460.0313 939.4375,1459.4844 C940.0156,1459.0781 940.3438,1458.625 940.3438,1458.2344 C940.3438,1457.7813 939.9531,1457.3906 939.4844,1457.3906 C939.2656,1457.3906 939.0625,1457.4688 938.875,1457.6563 C938.4219,1458.1406 938.4219,1458.1406 938.2344,1458.2344 C937.8125,1458.5 937.125,1458.625 936.3594,1458.625 C934.3125,1458.625 933.0156,1457.5313 933.0156,1455.8281 L933.0156,1454.7344 C933.0156,1452.9531 934.2656,1451.6406 936,1451.6406 C936.5781,1451.6406 937.1875,1451.7969 937.6563,1452.0469 C938.1406,1452.3281 938.3125,1452.5469 938.4063,1452.9531 C938.4688,1453.3594 938.5,1453.4844 938.6406,1453.6094 C938.7813,1453.75 939.0156,1453.8594 939.2344,1453.8594 C939.5,1453.8594 939.7656,1453.7188 939.9375,1453.5 C940.0469,1453.3438 940.0781,1453.1563 940.0781,1452.7344 L940.0781,1451.3125 C940.0781,1450.875 940.0625,1450.75 939.9688,1450.5938 C939.8125,1450.3281 939.5313,1450.1875 939.2344,1450.1875 C938.9375,1450.1875 938.7344,1450.2813 938.5156,1450.5938 L938.3438,1450.5156 Z " fill="#000000"/><text fill="#000000" font-family="sans-serif" font-size="14" font-style="italic" lengthAdjust="spacing" textLength="73" x="953" y="1456.8389">&#171;web API&#187;</text><text fill="#000000" font-family="sans-serif" font-size="14" lengthAdjust="spacing" textLength="23" x="978" y="1473.1357">API</text><text fill="#000000" font-family="sans-serif" font-size="14" lengthAdjust="spacing" textLength="51" x="1175" y="80.292">Usu&#225;rio</text><ellipse cx="1203.5" cy="15.7969" fill="#E2E2F0" rx="8" ry="8" style="stroke:#181818;stroke-width:0.5;"/><path d="M1203.5,23.7969 L1203.5,50.7969 M1190.5,31.7969 L1216.5,31.7969 M1203.5,50.7969 L1190.5,65.7969 M1203.5,50.7969 L1216.5,65.7969 " fill="none" style="stroke:#181818;stroke-width:0.5;"/><text fill="#000000" font-family="sans-serif" font-size="14" lengthAdjust="spacing" textLength="51" x="1175" y="1449.8389">Usu&#225;rio</text><ellipse cx="1203.5" cy="1461.6406" fill="#E2E2F0" rx="8" ry="8" style="stroke:#181818;stroke-width:0.5;"/><path d="M1203.5,1469.6406 L1203.5,1496.6406 M1190.5,1477.6406 L1216.5,1477.6406 M1203.5,1496.6406 L1190.5,1511.6406 M1203.5,1496.6406 L1216.5,1511.6406 " fill="none" style="stroke:#181818;stroke-width:0.5;"/><rect fill="#FFFFFF" height="87.3984" style="stroke:#181818;stroke-width:1.0;" width="10" x="970.5" y="1325.4453"/><rect fill="#EEEEEE" height="3" style="stroke:#EEEEEE;stroke-width:1.0;" width="1252" x="0" y="114.1602"/><line style="stroke:#000000;stroke-width:1.0;" x1="0" x2="1252" y1="114.1602" y2="114.1602"/><line style="stroke:#000000;stroke-width:1.0;" x1="0" x2="1252" y1="117.1602" y2="117.1602"/><rect fill="#EEEEEE" height="23.1328" style="stroke:#000000;stroke-width:2.0;" width="174" x="539" y="103.5938"/><text fill="#000000" font-family="sans-serif" font-size="13" font-weight="bold" lengthAdjust="spacing" textLength="155" x="545" y="119.6606">Recep&#231;&#227;o dos Votos</text><path d="M10,143.7266 L119,143.7266 L119,150.8594 L109,160.8594 L10,160.8594 L10,143.7266 " fill="#EEEEEE" style="stroke:#000000;stroke-width:1.5;"/><rect fill="none" height="362.125" style="stroke:#000000;stroke-width:1.5;" width="386" x="10" y="143.7266"/><text fill="#000000" font-family="sans-serif" font-size="13" font-weight="bold" lengthAdjust="spacing" textLength="64" x="25" y="156.7935">Provider</text><path d="M33,165.8594 L33,190.8594 L168,190.8594 L168,175.8594 L158,165.8594 L33,165.8594 " fill="#FEFFDD" style="stroke:#181818;stroke-width:0.5;"/><path d="M158,165.8594 L158,175.8594 L168,175.8594 L158,165.8594 " fill="#FEFFDD" style="stroke:#181818;stroke-width:0.5;"/><text fill="#000000" font-family="sans-serif" font-size="13" lengthAdjust="spacing" textLength="114" x="39" y="182.9263">In&#237;cio do processo</text><polygon fill="#181818" points="267,273.6563,277,277.6563,267,281.6563,271,277.6563" style="stroke:#181818;stroke-width:1.0;"/><line style="stroke:#181818;stroke-width:1.0;" x1="101" x2="273" y1="277.6563" y2="277.6563"/><text fill="#000000" font-family="sans-serif" font-size="13" font-weight="bold" lengthAdjust="spacing" textLength="23" x="108" y="242.3247">1.1</text><text fill="#000000" font-family="sans-serif" font-size="13" lengthAdjust="spacing" textLength="109" x="135" y="212.0591">In&#237;cio da Vota&#231;&#227;o</text><text fill="#000000" font-family="sans-serif" font-size="13" lengthAdjust="spacing" textLength="79" x="135" y="227.1919">[id_votacao,</text><text fill="#000000" font-family="sans-serif" font-size="13" lengthAdjust="spacing" textLength="41" x="139" y="242.3247">nome,</text><text fill="#000000" font-family="sans-serif" font-size="13" lengthAdjust="spacing" textLength="74" x="139" y="257.4575">candidatos,</text><text fill="#000000" font-family="sans-serif" font-size="13" lengthAdjust="spacing" textLength="60" x="139" y="272.5903">eleitores]</text><path d="M28,290.6563 L28,315.6563 L173,315.6563 L173,300.6563 L163,290.6563 L28,290.6563 " fill="#FEFFDD" style="stroke:#181818;stroke-width:0.5;"/><path d="M163,290.6563 L163,300.6563 L173,300.6563 L163,290.6563 " fill="#FEFFDD" style="stroke:#181818;stroke-width:0.5;"/><text fill="#000000" font-family="sans-serif" font-size="13" lengthAdjust="spacing" textLength="124" x="34" y="307.7231">Per&#237;odo da vota&#231;&#227;o</text><path d="M20,327.7891 L98,327.7891 L98,334.9219 L88,344.9219 L20,344.9219 L20,327.7891 " fill="#EEEEEE" style="stroke:#000000;stroke-width:1.5;"/><rect fill="none" height="91.6641" style="stroke:#000000;stroke-width:1.5;" width="366" x="20" y="327.7891"/><text fill="#000000" font-family="sans-serif" font-size="13" font-weight="bold" lengthAdjust="spacing" textLength="33" x="35" y="340.856">loop</text><text fill="#000000" font-family="sans-serif" font-size="11" font-weight="bold" lengthAdjust="spacing" textLength="217" x="113" y="339.9995">[At&#233; o tempo limite da vota&#231;&#227;o]</text><polygon fill="#181818" points="267,407.4531,277,411.4531,267,415.4531,271,411.4531" style="stroke:#181818;stroke-width:1.0;"/><line style="stroke:#181818;stroke-width:1.0;" x1="101" x2="273" y1="411.4531" y2="411.4531"/><text fill="#000000" font-family="sans-serif" font-size="13" font-weight="bold" lengthAdjust="spacing" textLength="23" x="108" y="383.688">1.2</text><text fill="#000000" font-family="sans-serif" font-size="13" lengthAdjust="spacing" textLength="30" x="135" y="360.9888">Voto</text><text fill="#000000" font-family="sans-serif" font-size="13" lengthAdjust="spacing" textLength="79" x="135" y="376.1216">[id_votacao,</text><text fill="#000000" font-family="sans-serif" font-size="13" lengthAdjust="spacing" textLength="62" x="139" y="391.2544">id_eleitor,</text><text fill="#000000" font-family="sans-serif" font-size="13" lengthAdjust="spacing" textLength="86" x="139" y="406.3872">id_candidato]</text><path d="M38,431.4531 L38,456.4531 L164,456.4531 L164,441.4531 L154,431.4531 L38,431.4531 " fill="#FEFFDD" style="stroke:#181818;stroke-width:0.5;"/><path d="M154,431.4531 L154,441.4531 L164,441.4531 L154,431.4531 " fill="#FEFFDD" style="stroke:#181818;stroke-width:0.5;"/><text fill="#000000" font-family="sans-serif" font-size="13" lengthAdjust="spacing" textLength="105" x="44" y="448.52">Fim do processo</text><line style="stroke:#181818;stroke-width:1.0;" x1="277" x2="267" y1="497.8516" y2="493.8516"/><line style="stroke:#181818;stroke-width:1.0;" x1="277" x2="267" y1="497.8516" y2="501.8516"/><line style="stroke:#181818;stroke-width:1.0;" x1="101" x2="278" y1="497.8516" y2="497.8516"/><text fill="#000000" font-family="sans-serif" font-size="13" font-weight="bold" lengthAdjust="spacing" textLength="22" x="108" y="485.2192">1.3</text><text fill="#000000" font-family="sans-serif" font-size="13" lengthAdjust="spacing" textLength="100" x="134" y="477.6528">Fim da Vota&#231;&#227;o</text><text fill="#000000" font-family="sans-serif" font-size="13" lengthAdjust="spacing" textLength="80" x="134" y="492.7856">[id_votacao]</text><rect fill="#EEEEEE" height="3" style="stroke:#EEEEEE;stroke-width:1.0;" width="1252" x="0" y="533.418"/><line style="stroke:#000000;stroke-width:1.0;" x1="0" x2="1252" y1="533.418" y2="533.418"/><line style="stroke:#000000;stroke-width:1.0;" x1="0" x2="1252" y1="536.418" y2="536.418"/><rect fill="#EEEEEE" height="23.1328" style="stroke:#000000;stroke-width:2.0;" width="180" x="536" y="522.8516"/><text fill="#000000" font-family="sans-serif" font-size="13" font-weight="bold" lengthAdjust="spacing" textLength="161" x="542" y="538.9185">Contagem dos Votos</text><path d="M162,562.9844 L279,562.9844 L279,570.1172 L269,580.1172 L162,580.1172 L162,562.9844 " fill="#EEEEEE" style="stroke:#000000;stroke-width:1.5;"/><rect fill="none" height="667.0625" style="stroke:#000000;stroke-width:1.5;" width="786" x="162" y="562.9844"/><text fill="#000000" font-family="sans-serif" font-size="13" font-weight="bold" lengthAdjust="spacing" textLength="72" x="177" y="576.0513">Contador</text><path d="M172,587.1172 L250,587.1172 L250,594.25 L240,604.25 L172,604.25 L172,587.1172 " fill="#EEEEEE" style="stroke:#000000;stroke-width:1.5;"/><rect fill="none" height="635.9297" style="stroke:#000000;stroke-width:1.5;" width="766" x="172" y="587.1172"/><text fill="#000000" font-family="sans-serif" font-size="13" font-weight="bold" lengthAdjust="spacing" textLength="33" x="187" y="600.1841">loop</text><line style="stroke:#181818;stroke-width:1.0;" x1="438.5" x2="428.5" y1="640.5156" y2="636.5156"/><line style="stroke:#181818;stroke-width:1.0;" x1="438.5" x2="428.5" y1="640.5156" y2="644.5156"/><line style="stroke:#181818;stroke-width:1.0;" x1="279" x2="439.5" y1="640.5156" y2="640.5156"/><text fill="#000000" font-family="sans-serif" font-size="13" font-weight="bold" lengthAdjust="spacing" textLength="23" x="286" y="627.8833">2.1</text><text fill="#000000" font-family="sans-serif" font-size="13" lengthAdjust="spacing" textLength="48" x="313" y="620.3169">Recebe</text><text fill="#000000" font-family="sans-serif" font-size="13" lengthAdjust="spacing" textLength="73" x="313" y="635.4497">mensagem</text><path d="M336,653.5156 L336,678.5156 L545,678.5156 L545,663.5156 L535,653.5156 L336,653.5156 " fill="#FEFFDD" style="stroke:#181818;stroke-width:0.5;"/><path d="M535,653.5156 L535,663.5156 L545,663.5156 L535,653.5156 " fill="#FEFFDD" style="stroke:#181818;stroke-width:0.5;"/><text fill="#000000" font-family="sans-serif" font-size="13" lengthAdjust="spacing" textLength="188" x="342" y="670.5825">Identificar tipo da mensagem</text><path d="M366,690.6484 L432,690.6484 L432,697.7813 L422,707.7813 L366,707.7813 L366,690.6484 " fill="#EEEEEE" style="stroke:#000000;stroke-width:1.5;"/><rect fill="none" height="525.3984" style="stroke:#000000;stroke-width:1.5;" width="562" x="366" y="690.6484"/><text fill="#000000" font-family="sans-serif" font-size="13" font-weight="bold" lengthAdjust="spacing" textLength="21" x="381" y="703.7153">alt</text><text fill="#000000" font-family="sans-serif" font-size="11" font-weight="bold" lengthAdjust="spacing" textLength="127" x="447" y="702.8589">[In&#237;cio da Vota&#231;&#227;o]</text><polygon fill="#181818" points="643.5,755.1797,653.5,759.1797,643.5,763.1797,647.5,759.1797" style="stroke:#181818;stroke-width:1.0;"/><line style="stroke:#181818;stroke-width:1.0;" x1="440.5" x2="649.5" y1="759.1797" y2="759.1797"/><text fill="#000000" font-family="sans-serif" font-size="13" font-weight="bold" lengthAdjust="spacing" textLength="37" x="447.5" y="738.981">2.2.1</text><text fill="#000000" font-family="sans-serif" font-size="13" lengthAdjust="spacing" textLength="142" x="488.5" y="723.8481">Inicializa vota&#231;&#227;o para</text><text fill="#000000" font-family="sans-serif" font-size="13" lengthAdjust="spacing" textLength="146" x="492.5" y="738.981">id_votacao + defini&#231;&#227;o</text><text fill="#000000" font-family="sans-serif" font-size="13" lengthAdjust="spacing" textLength="97" x="492.5" y="754.1138">dos candidatos</text><path d="M591,772.1797 L591,812.1797 L720,812.1797 L720,782.1797 L710,772.1797 L591,772.1797 " fill="#FEFFDD" style="stroke:#181818;stroke-width:0.5;"/><path d="M710,772.1797 L710,782.1797 L720,782.1797 L710,772.1797 " fill="#FEFFDD" style="stroke:#181818;stroke-width:0.5;"/><text fill="#000000" font-family="sans-serif" font-size="13" lengthAdjust="spacing" textLength="108" x="597" y="789.2466">In&#237;cio da vota&#231;&#227;o</text><text fill="#000000" font-family="sans-serif" font-size="13" lengthAdjust="spacing" textLength="100" x="597" y="804.3794">com zero votos</text><polygon fill="#181818" points="835.5,849.7109,845.5,853.7109,835.5,857.7109,839.5,853.7109" style="stroke:#181818;stroke-width:1.0;"/><line style="stroke:#181818;stroke-width:1.0;" x1="655.5" x2="841.5" y1="853.7109" y2="853.7109"/><text fill="#000000" font-family="sans-serif" font-size="13" font-weight="bold" lengthAdjust="spacing" textLength="37" x="662.5" y="841.0786">2.2.2</text><text fill="#000000" font-family="sans-serif" font-size="13" lengthAdjust="spacing" textLength="89" x="703.5" y="833.5122">Registra in&#237;cio</text><text fill="#000000" font-family="sans-serif" font-size="13" lengthAdjust="spacing" textLength="72" x="703.5" y="848.645">da vota&#231;&#227;o</text><line style="stroke:#000000;stroke-width:1.0;stroke-dasharray:2.0,2.0;" x1="366" x2="928" y1="862.7109" y2="862.7109"/><text fill="#000000" font-family="sans-serif" font-size="11" font-weight="bold" lengthAdjust="spacing" textLength="114" x="371" y="872.9214">[Fim da Vota&#231;&#227;o]</text><polygon fill="#181818" points="643.5,923.9141,653.5,927.9141,643.5,931.9141,647.5,927.9141" style="stroke:#181818;stroke-width:1.0;"/><line style="stroke:#181818;stroke-width:1.0;" x1="440.5" x2="649.5" y1="927.9141" y2="927.9141"/><text fill="#000000" font-family="sans-serif" font-size="13" font-weight="bold" lengthAdjust="spacing" textLength="36" x="447.5" y="907.7153">2.2.3</text><text fill="#000000" font-family="sans-serif" font-size="13" lengthAdjust="spacing" textLength="110" x="487.5" y="892.5825">Finaliza buffer de</text><text fill="#000000" font-family="sans-serif" font-size="13" lengthAdjust="spacing" textLength="85" x="491.5" y="907.7153">vota&#231;&#227;o para</text><text fill="#000000" font-family="sans-serif" font-size="13" lengthAdjust="spacing" textLength="82" x="491.5" y="922.8481">o id_votacao</text><path d="M592,940.9141 L592,965.9141 L719,965.9141 L719,950.9141 L709,940.9141 L592,940.9141 " fill="#FEFFDD" style="stroke:#181818;stroke-width:0.5;"/><path d="M709,940.9141 L709,950.9141 L719,950.9141 L709,940.9141 " fill="#FEFFDD" style="stroke:#181818;stroke-width:0.5;"/><text fill="#000000" font-family="sans-serif" font-size="13" lengthAdjust="spacing" textLength="106" x="598" y="957.981">Totaliza vota&#231;&#227;o</text><polygon fill="#181818" points="835.5,1003.3125,845.5,1007.3125,835.5,1011.3125,839.5,1007.3125" style="stroke:#181818;stroke-width:1.0;"/><line style="stroke:#181818;stroke-width:1.0;" x1="655.5" x2="841.5" y1="1007.3125" y2="1007.3125"/><text fill="#000000" font-family="sans-serif" font-size="13" font-weight="bold" lengthAdjust="spacing" textLength="37" x="662.5" y="994.6802">2.2.4</text><text fill="#000000" font-family="sans-serif" font-size="13" lengthAdjust="spacing" textLength="127" x="703.5" y="987.1138">Persiste vota&#231;&#227;o no</text><text fill="#000000" font-family="sans-serif" font-size="13" lengthAdjust="spacing" textLength="102" x="703.5" y="1002.2466">banco de dados</text><line style="stroke:#000000;stroke-width:1.0;stroke-dasharray:2.0,2.0;" x1="366" x2="928" y1="1016.3125" y2="1016.3125"/><text fill="#000000" font-family="sans-serif" font-size="11" font-weight="bold" lengthAdjust="spacing" textLength="44" x="371" y="1026.5229">[Voto]</text><path d="M376,1037.1172 L442,1037.1172 L442,1044.25 L432,1054.25 L376,1054.25 L376,1037.1172 " fill="#EEEEEE" style="stroke:#000000;stroke-width:1.5;"/><rect fill="none" height="46.2656" style="stroke:#000000;stroke-width:1.5;" width="335" x="376" y="1037.1172"/><text fill="#000000" font-family="sans-serif" font-size="13" font-weight="bold" lengthAdjust="spacing" textLength="21" x="391" y="1050.1841">alt</text><text fill="#000000" font-family="sans-serif" font-size="11" font-weight="bold" lengthAdjust="spacing" textLength="243" x="457" y="1049.3276">[Buffer de vota&#231;&#227;o est&#225; inicalizado]</text><line style="stroke:#181818;stroke-width:1.0;" x1="653.5" x2="643.5" y1="1075.3828" y2="1071.3828"/><line style="stroke:#181818;stroke-width:1.0;" x1="653.5" x2="643.5" y1="1075.3828" y2="1079.3828"/><line style="stroke:#181818;stroke-width:1.0;" x1="440.5" x2="654.5" y1="1075.3828" y2="1075.3828"/><text fill="#000000" font-family="sans-serif" font-size="13" font-weight="bold" lengthAdjust="spacing" textLength="37" x="447.5" y="1070.3169">2.2.5</text><text fill="#000000" font-family="sans-serif" font-size="13" lengthAdjust="spacing" textLength="86" x="488.5" y="1070.3169">Registra voto</text><path d="M571,1097.3828 L637,1097.3828 L637,1104.5156 L627,1114.5156 L571,1114.5156 L571,1097.3828 " fill="#EEEEEE" style="stroke:#000000;stroke-width:1.5;"/><rect fill="none" height="111.6641" style="stroke:#000000;stroke-width:1.5;" width="347" x="571" y="1097.3828"/><text fill="#000000" font-family="sans-serif" font-size="13" font-weight="bold" lengthAdjust="spacing" textLength="21" x="586" y="1110.4497">alt</text><text fill="#000000" font-family="sans-serif" font-size="11" font-weight="bold" lengthAdjust="spacing" textLength="108" x="652" y="1109.5933">[A cada x votos]</text><path d="M581,1119.5156 L581,1144.5156 L729,1144.5156 L729,1129.5156 L719,1119.5156 L581,1119.5156 " fill="#FEFFDD" style="stroke:#181818;stroke-width:0.5;"/><path d="M719,1119.5156 L719,1129.5156 L729,1129.5156 L719,1119.5156 " fill="#FEFFDD" style="stroke:#181818;stroke-width:0.5;"/><text fill="#000000" font-family="sans-serif" font-size="13" lengthAdjust="spacing" textLength="127" x="587" y="1136.5825">Subtotaliza vota&#231;&#227;o</text><line style="stroke:#181818;stroke-width:1.0;" x1="845.5" x2="835.5" y1="1201.0469" y2="1197.0469"/><line style="stroke:#181818;stroke-width:1.0;" x1="845.5" x2="835.5" y1="1201.0469" y2="1205.0469"/><line style="stroke:#181818;stroke-width:1.0;" x1="655.5" x2="846.5" y1="1201.0469" y2="1201.0469"/><text fill="#000000" font-family="sans-serif" font-size="13" font-weight="bold" lengthAdjust="spacing" textLength="37" x="662.5" y="1180.8481">2.2.6</text><text fill="#000000" font-family="sans-serif" font-size="13" lengthAdjust="spacing" textLength="124" x="703.5" y="1165.7153">Registra resultados</text><text fill="#000000" font-family="sans-serif" font-size="13" lengthAdjust="spacing" textLength="82" x="703.5" y="1180.8481">parciais para</text><text fill="#000000" font-family="sans-serif" font-size="13" lengthAdjust="spacing" textLength="82" x="703.5" y="1195.981">o id_votacao</text><rect fill="#EEEEEE" height="3" style="stroke:#EEEEEE;stroke-width:1.0;" width="1252" x="0" y="1257.6133"/><line style="stroke:#000000;stroke-width:1.0;" x1="0" x2="1252" y1="1257.6133" y2="1257.6133"/><line style="stroke:#000000;stroke-width:1.0;" x1="0" x2="1252" y1="1260.6133" y2="1260.6133"/><rect fill="#EEEEEE" height="23.1328" style="stroke:#000000;stroke-width:2.0;" width="245" x="503.5" y="1247.0469"/><text fill="#000000" font-family="sans-serif" font-size="13" font-weight="bold" lengthAdjust="spacing" textLength="226" x="509.5" y="1263.1138">Apresenta&#231;&#227;o dos Resultados</text><path d="M777,1287.1797 L847,1287.1797 L847,1294.3125 L837,1304.3125 L777,1304.3125 L777,1287.1797 " fill="#EEEEEE" style="stroke:#000000;stroke-width:1.5;"/><rect fill="none" height="133.6641" style="stroke:#000000;stroke-width:1.5;" width="465" x="777" y="1287.1797"/><text fill="#000000" font-family="sans-serif" font-size="13" font-weight="bold" lengthAdjust="spacing" textLength="25" x="792" y="1300.2466">API</text><polygon fill="#181818" points="991.5,1321.4453,981.5,1325.4453,991.5,1329.4453,987.5,1325.4453" style="stroke:#181818;stroke-width:1.0;"/><line style="stroke:#181818;stroke-width:1.0;" x1="985.5" x2="1202.5" y1="1325.4453" y2="1325.4453"/><text fill="#000000" font-family="sans-serif" font-size="13" font-weight="bold" lengthAdjust="spacing" textLength="22" x="997.5" y="1320.3794">3.1</text><text fill="#000000" font-family="sans-serif" font-size="13" lengthAdjust="spacing" textLength="178" x="1023.5" y="1320.3794">GET /votacao/{id_votacao}</text><polygon fill="#181818" points="858.5,1350.5781,848.5,1354.5781,858.5,1358.5781,854.5,1354.5781" style="stroke:#181818;stroke-width:1.0;"/><line style="stroke:#181818;stroke-width:1.0;" x1="852.5" x2="969.5" y1="1354.5781" y2="1354.5781"/><text fill="#000000" font-family="sans-serif" font-size="13" font-weight="bold" lengthAdjust="spacing" textLength="22" x="864.5" y="1349.5122">3.2</text><text fill="#000000" font-family="sans-serif" font-size="13" lengthAdjust="spacing" textLength="39" x="890.5" y="1349.5122">Query</text><polygon fill="#181818" points="958.5,1379.7109,968.5,1383.7109,958.5,1387.7109,962.5,1383.7109" style="stroke:#181818;stroke-width:1.0;"/><line style="stroke:#181818;stroke-width:1.0;" x1="847.5" x2="964.5" y1="1383.7109" y2="1383.7109"/><text fill="#000000" font-family="sans-serif" font-size="13" font-weight="bold" lengthAdjust="spacing" textLength="21" x="854.5" y="1378.645">3.3</text><text fill="#000000" font-family="sans-serif" font-size="13" lengthAdjust="spacing" textLength="47" x="879.5" y="1378.645">Results</text><polygon fill="#181818" points="1191.5,1408.8438,1201.5,1412.8438,1191.5,1416.8438,1195.5,1412.8438" style="stroke:#181818;stroke-width:1.0;"/><line style="stroke:#181818;stroke-width:1.0;" x1="975.5" x2="1197.5" y1="1412.8438" y2="1412.8438"/><text fill="#000000" font-family="sans-serif" font-size="13" font-weight="bold" lengthAdjust="spacing" textLength="22" x="982.5" y="1407.7778">3.4</text><text fill="#000000" font-family="sans-serif" font-size="13" lengthAdjust="spacing" textLength="63" x="1008.5" y="1407.7778">Response</text><!--SRC=[TLNDRjD04BxlKup41KH3rNAhcaX9Gr4EIAKjN4Y5rjv9j63lcDsrWI8UfkA0EFGfycBChXt_9Ed1ZdSzCz_FZ3U5j5wdkf36mvMbIYkqS7uEpo-EdatdyvFPwGluGibnIiPHXZ2P2F6jn1BXVRnB1_Lo9sTwNrg46xILJX5cfGkPHG_iWahZzx6-a_tAkm4cfIp3r6j6vWAh5MypMbAkOiwYo_7eVCXGqij4EeJvze7ZLHB3vrtuEp9hciyYHf_Hz6gnnmQJk1r2XKmzMVZWois3rHHgbmwj4ECnN6EAnURlvW-18WSVoVDzF1PhIsNH-YfawScKUS9AJbwT24CUWIfURIFEO64sZwaEPQ2mbA9p9BPlHvDeTIz81YWPWPVcarQVArwcaewM1Wpb67vJQPHcQyY55MQeMGQwkuFmLsWtZwHYwMfRMcH41KpzvXyGcvqN19dEDMSFelPe1XlsQF6guT2iMdvt0eqwoEfIvqyOieMA4K-vKHVcDbsGyNAD-Q4cnNUA1aqwvIO5xVN4Crepj6UnuGakJOx6XOezsctCGg7nUgLJQS7h8dhQnWzG0exC_C6-YgRUQCAJ7rhFuoepVTzp7dYAPMrcenXUWiALDhen8mhk1g77jYdQubQTWodbS8-MmXxdSEHeefAWVQsTjn9qdROqWp70Z3-ytNxigBZKfjQGrD-rOYltzL1FqIxbMzuUkY0wXZp5ZYbYhwHXcebaJOp5pDYFccYOWkZzRCkabyJdokQ1PN8B0vRgoQXrj5O4Y-AKXL9Jjfh5_sYCss5-KoP-dtpaFhINFz8o2pFfbeOTuRPhrrWpS2R0Xgjzu4cV5fpDuoUxG-cwBTSDFPzj_KbypNCOphJHX5-SmTitjt3Se1p_wX1_XwDGLv9bXG9yrRRpFuBzALJIfDU0hduVoiQjWezp50e79PZrVm00]--></g></svg>